<?xml version="1.0" encoding="UTF-8" standalone="no"?>
<!DOCTYPE svg PUBLIC "-//W3C//DTD SVG 1.1//EN"
 "http://www.w3.org/Graphics/SVG/1.1/DTD/svg11.dtd">
<!-- Generated by graphviz version 2.38.0 (20140413.2041)
 -->
<!-- Title: Tree Pages: 1 -->
<svg width="792pt" height="561pt"
 viewBox="0.00 0.00 792.00 561.00" xmlns="http://www.w3.org/2000/svg" xmlns:xlink="http://www.w3.org/1999/xlink">
<g id="graph0" class="graph" transform="scale(1 1) rotate(0) translate(4 557)">
<title>Tree</title>
<polygon fill="white" stroke="none" points="-4,4 -4,-557 788,-557 788,4 -4,4"/>
<!-- 0 -->
<g id="node1" class="node"><title>0</title>
<path fill="#f7f3fd" stroke="black" d="M474,-553C474,-553 361,-553 361,-553 355,-553 349,-547 349,-541 349,-541 349,-501 349,-501 349,-495 355,-489 361,-489 361,-489 474,-489 474,-489 480,-489 486,-495 486,-501 486,-501 486,-541 486,-541 486,-547 480,-553 474,-553"/>
<text text-anchor="start" x="391" y="-538.8" font-family="Helvetica,sans-Serif" font-size="14.00">X</text>
<text text-anchor="start" x="401" y="-538.8" font-family="Helvetica,sans-Serif" baseline-shift="sub" font-size="14.00">3</text>
<text text-anchor="start" x="408" y="-538.8" font-family="Helvetica,sans-Serif" font-size="14.00"> ≤ 0.8</text>
<text text-anchor="start" x="380" y="-524.8" font-family="Helvetica,sans-Serif" font-size="14.00">gini = 0.665</text>
<text text-anchor="start" x="370" y="-510.8" font-family="Helvetica,sans-Serif" font-size="14.00">samples = 120</text>
<text text-anchor="start" x="357" y="-496.8" font-family="Helvetica,sans-Serif" font-size="14.00">value = [39, 37, 44]</text>
</g>
<!-- 1 -->
<g id="node2" class="node"><title>1</title>
<path fill="#e58139" stroke="black" d="M395,-447.5C395,-447.5 298,-447.5 298,-447.5 292,-447.5 286,-441.5 286,-435.5 286,-435.5 286,-406.5 286,-406.5 286,-400.5 292,-394.5 298,-394.5 298,-394.5 395,-394.5 395,-394.5 401,-394.5 407,-400.5 407,-406.5 407,-406.5 407,-435.5 407,-435.5 407,-441.5 401,-447.5 395,-447.5"/>
<text text-anchor="start" x="317.5" y="-432.3" font-family="Helvetica,sans-Serif" font-size="14.00">gini = 0.0</text>
<text text-anchor="start" x="303" y="-417.3" font-family="Helvetica,sans-Serif" font-size="14.00">samples = 39</text>
<text text-anchor="start" x="294" y="-402.3" font-family="Helvetica,sans-Serif" font-size="14.00">value = [39, 0, 0]</text>
</g>
<!-- 0&#45;&gt;1 -->
<g id="edge1" class="edge"><title>0&#45;&gt;1</title>
<path fill="none" stroke="black" d="M395.035,-488.992C387.406,-478.461 378.843,-466.643 371.059,-455.898"/>
<polygon fill="black" stroke="black" points="373.717,-453.601 365.015,-447.556 368.048,-457.708 373.717,-453.601"/>
<text text-anchor="middle" x="361.071" y="-468.543" font-family="Helvetica,sans-Serif" font-size="14.00">True</text>
</g>
<!-- 2 -->
<g id="node3" class="node"><title>2</title>
<path fill="#ebe0fb" stroke="black" d="M542,-453C542,-453 437,-453 437,-453 431,-453 425,-447 425,-441 425,-441 425,-401 425,-401 425,-395 431,-389 437,-389 437,-389 542,-389 542,-389 548,-389 554,-395 554,-401 554,-401 554,-441 554,-441 554,-447 548,-453 542,-453"/>
<text text-anchor="start" x="459" y="-438.8" font-family="Helvetica,sans-Serif" font-size="14.00">X</text>
<text text-anchor="start" x="469" y="-438.8" font-family="Helvetica,sans-Serif" baseline-shift="sub" font-size="14.00">3</text>
<text text-anchor="start" x="476" y="-438.8" font-family="Helvetica,sans-Serif" font-size="14.00"> ≤ 1.75</text>
<text text-anchor="start" x="452" y="-424.8" font-family="Helvetica,sans-Serif" font-size="14.00">gini = 0.496</text>
<text text-anchor="start" x="446" y="-410.8" font-family="Helvetica,sans-Serif" font-size="14.00">samples = 81</text>
<text text-anchor="start" x="433" y="-396.8" font-family="Helvetica,sans-Serif" font-size="14.00">value = [0, 37, 44]</text>
</g>
<!-- 0&#45;&gt;2 -->
<g id="edge2" class="edge"><title>0&#45;&gt;2</title>
<path fill="none" stroke="black" d="M440.281,-488.992C446.716,-480.234 453.805,-470.585 460.55,-461.404"/>
<polygon fill="black" stroke="black" points="463.52,-463.274 466.62,-453.142 457.878,-459.129 463.52,-463.274"/>
<text text-anchor="middle" x="470.399" y="-474.155" font-family="Helvetica,sans-Serif" font-size="14.00">False</text>
</g>
<!-- 3 -->
<g id="node4" class="node"><title>3</title>
<path fill="#4fe88f" stroke="black" d="M439,-353C439,-353 342,-353 342,-353 336,-353 330,-347 330,-341 330,-341 330,-301 330,-301 330,-295 336,-289 342,-289 342,-289 439,-289 439,-289 445,-289 451,-295 451,-301 451,-301 451,-341 451,-341 451,-347 445,-353 439,-353"/>
<text text-anchor="start" x="360" y="-338.8" font-family="Helvetica,sans-Serif" font-size="14.00">X</text>
<text text-anchor="start" x="370" y="-338.8" font-family="Helvetica,sans-Serif" baseline-shift="sub" font-size="14.00">2</text>
<text text-anchor="start" x="377" y="-338.8" font-family="Helvetica,sans-Serif" font-size="14.00"> ≤ 4.95</text>
<text text-anchor="start" x="357" y="-324.8" font-family="Helvetica,sans-Serif" font-size="14.00">gini = 0.18</text>
<text text-anchor="start" x="347" y="-310.8" font-family="Helvetica,sans-Serif" font-size="14.00">samples = 40</text>
<text text-anchor="start" x="338" y="-296.8" font-family="Helvetica,sans-Serif" font-size="14.00">value = [0, 36, 4]</text>
</g>
<!-- 2&#45;&gt;3 -->
<g id="edge3" class="edge"><title>2&#45;&gt;3</title>
<path fill="none" stroke="black" d="M458.176,-388.992C448.967,-379.876 438.783,-369.796 429.173,-360.282"/>
<polygon fill="black" stroke="black" points="431.529,-357.69 421.96,-353.142 426.605,-362.665 431.529,-357.69"/>
</g>
<!-- 12 -->
<g id="node13" class="node"><title>12</title>
<path fill="#843ee6" stroke="black" d="M637,-353C637,-353 540,-353 540,-353 534,-353 528,-347 528,-341 528,-341 528,-301 528,-301 528,-295 534,-289 540,-289 540,-289 637,-289 637,-289 643,-289 649,-295 649,-301 649,-301 649,-341 649,-341 649,-347 643,-353 637,-353"/>
<text text-anchor="start" x="558" y="-338.8" font-family="Helvetica,sans-Serif" font-size="14.00">X</text>
<text text-anchor="start" x="568" y="-338.8" font-family="Helvetica,sans-Serif" baseline-shift="sub" font-size="14.00">2</text>
<text text-anchor="start" x="575" y="-338.8" font-family="Helvetica,sans-Serif" font-size="14.00"> ≤ 4.85</text>
<text text-anchor="start" x="551" y="-324.8" font-family="Helvetica,sans-Serif" font-size="14.00">gini = 0.048</text>
<text text-anchor="start" x="545" y="-310.8" font-family="Helvetica,sans-Serif" font-size="14.00">samples = 41</text>
<text text-anchor="start" x="536" y="-296.8" font-family="Helvetica,sans-Serif" font-size="14.00">value = [0, 1, 40]</text>
</g>
<!-- 2&#45;&gt;12 -->
<g id="edge12" class="edge"><title>2&#45;&gt;12</title>
<path fill="none" stroke="black" d="M520.824,-388.992C530.033,-379.876 540.217,-369.796 549.827,-360.282"/>
<polygon fill="black" stroke="black" points="552.395,-362.665 557.04,-353.142 547.471,-357.69 552.395,-362.665"/>
</g>
<!-- 4 -->
<g id="node5" class="node"><title>4</title>
<path fill="#3fe685" stroke="black" d="M244,-253C244,-253 147,-253 147,-253 141,-253 135,-247 135,-241 135,-241 135,-201 135,-201 135,-195 141,-189 147,-189 147,-189 244,-189 244,-189 250,-189 256,-195 256,-201 256,-201 256,-241 256,-241 256,-247 250,-253 244,-253"/>
<text text-anchor="start" x="165" y="-238.8" font-family="Helvetica,sans-Serif" font-size="14.00">X</text>
<text text-anchor="start" x="175" y="-238.8" font-family="Helvetica,sans-Serif" baseline-shift="sub" font-size="14.00">3</text>
<text text-anchor="start" x="182" y="-238.8" font-family="Helvetica,sans-Serif" font-size="14.00"> ≤ 1.65</text>
<text text-anchor="start" x="158" y="-224.8" font-family="Helvetica,sans-Serif" font-size="14.00">gini = 0.056</text>
<text text-anchor="start" x="152" y="-210.8" font-family="Helvetica,sans-Serif" font-size="14.00">samples = 35</text>
<text text-anchor="start" x="143" y="-196.8" font-family="Helvetica,sans-Serif" font-size="14.00">value = [0, 34, 1]</text>
</g>
<!-- 3&#45;&gt;4 -->
<g id="edge4" class="edge"><title>3&#45;&gt;4</title>
<path fill="none" stroke="black" d="M329.87,-289.529C309.326,-279.205 286.221,-267.593 265.04,-256.948"/>
<polygon fill="black" stroke="black" points="266.6,-253.815 256.093,-252.452 263.456,-260.07 266.6,-253.815"/>
</g>
<!-- 7 -->
<g id="node8" class="node"><title>7</title>
<path fill="#d5bdf6" stroke="black" d="M435,-253C435,-253 346,-253 346,-253 340,-253 334,-247 334,-241 334,-241 334,-201 334,-201 334,-195 340,-189 346,-189 346,-189 435,-189 435,-189 441,-189 447,-195 447,-201 447,-201 447,-241 447,-241 447,-247 441,-253 435,-253"/>
<text text-anchor="start" x="360" y="-238.8" font-family="Helvetica,sans-Serif" font-size="14.00">X</text>
<text text-anchor="start" x="370" y="-238.8" font-family="Helvetica,sans-Serif" baseline-shift="sub" font-size="14.00">3</text>
<text text-anchor="start" x="377" y="-238.8" font-family="Helvetica,sans-Serif" font-size="14.00"> ≤ 1.55</text>
<text text-anchor="start" x="357" y="-224.8" font-family="Helvetica,sans-Serif" font-size="14.00">gini = 0.48</text>
<text text-anchor="start" x="351" y="-210.8" font-family="Helvetica,sans-Serif" font-size="14.00">samples = 5</text>
<text text-anchor="start" x="342" y="-196.8" font-family="Helvetica,sans-Serif" font-size="14.00">value = [0, 2, 3]</text>
</g>
<!-- 3&#45;&gt;7 -->
<g id="edge7" class="edge"><title>3&#45;&gt;7</title>
<path fill="none" stroke="black" d="M390.5,-288.992C390.5,-280.859 390.5,-271.959 390.5,-263.378"/>
<polygon fill="black" stroke="black" points="394,-263.142 390.5,-253.142 387,-263.142 394,-263.142"/>
</g>
<!-- 5 -->
<g id="node6" class="node"><title>5</title>
<path fill="#39e581" stroke="black" d="M109,-147.5C109,-147.5 12,-147.5 12,-147.5 6,-147.5 0,-141.5 0,-135.5 0,-135.5 0,-106.5 0,-106.5 0,-100.5 6,-94.5 12,-94.5 12,-94.5 109,-94.5 109,-94.5 115,-94.5 121,-100.5 121,-106.5 121,-106.5 121,-135.5 121,-135.5 121,-141.5 115,-147.5 109,-147.5"/>
<text text-anchor="start" x="31.5" y="-132.3" font-family="Helvetica,sans-Serif" font-size="14.00">gini = 0.0</text>
<text text-anchor="start" x="17" y="-117.3" font-family="Helvetica,sans-Serif" font-size="14.00">samples = 34</text>
<text text-anchor="start" x="8" y="-102.3" font-family="Helvetica,sans-Serif" font-size="14.00">value = [0, 34, 0]</text>
</g>
<!-- 4&#45;&gt;5 -->
<g id="edge5" class="edge"><title>4&#45;&gt;5</title>
<path fill="none" stroke="black" d="M152.785,-188.992C137.273,-177.731 119.733,-164.998 104.141,-153.68"/>
<polygon fill="black" stroke="black" points="105.854,-150.599 95.7053,-147.556 101.742,-156.263 105.854,-150.599"/>
</g>
<!-- 6 -->
<g id="node7" class="node"><title>6</title>
<path fill="#8139e5" stroke="black" d="M240,-147.5C240,-147.5 151,-147.5 151,-147.5 145,-147.5 139,-141.5 139,-135.5 139,-135.5 139,-106.5 139,-106.5 139,-100.5 145,-94.5 151,-94.5 151,-94.5 240,-94.5 240,-94.5 246,-94.5 252,-100.5 252,-106.5 252,-106.5 252,-135.5 252,-135.5 252,-141.5 246,-147.5 240,-147.5"/>
<text text-anchor="start" x="166.5" y="-132.3" font-family="Helvetica,sans-Serif" font-size="14.00">gini = 0.0</text>
<text text-anchor="start" x="156" y="-117.3" font-family="Helvetica,sans-Serif" font-size="14.00">samples = 1</text>
<text text-anchor="start" x="147" y="-102.3" font-family="Helvetica,sans-Serif" font-size="14.00">value = [0, 0, 1]</text>
</g>
<!-- 4&#45;&gt;6 -->
<g id="edge6" class="edge"><title>4&#45;&gt;6</title>
<path fill="none" stroke="black" d="M195.5,-188.992C195.5,-179.087 195.5,-168.042 195.5,-157.824"/>
<polygon fill="black" stroke="black" points="199,-157.556 195.5,-147.556 192,-157.556 199,-157.556"/>
</g>
<!-- 8 -->
<g id="node9" class="node"><title>8</title>
<path fill="#8139e5" stroke="black" d="M371,-147.5C371,-147.5 282,-147.5 282,-147.5 276,-147.5 270,-141.5 270,-135.5 270,-135.5 270,-106.5 270,-106.5 270,-100.5 276,-94.5 282,-94.5 282,-94.5 371,-94.5 371,-94.5 377,-94.5 383,-100.5 383,-106.5 383,-106.5 383,-135.5 383,-135.5 383,-141.5 377,-147.5 371,-147.5"/>
<text text-anchor="start" x="297.5" y="-132.3" font-family="Helvetica,sans-Serif" font-size="14.00">gini = 0.0</text>
<text text-anchor="start" x="287" y="-117.3" font-family="Helvetica,sans-Serif" font-size="14.00">samples = 2</text>
<text text-anchor="start" x="278" y="-102.3" font-family="Helvetica,sans-Serif" font-size="14.00">value = [0, 0, 2]</text>
</g>
<!-- 7&#45;&gt;8 -->
<g id="edge8" class="edge"><title>7&#45;&gt;8</title>
<path fill="none" stroke="black" d="M370.25,-188.992C363.441,-178.566 355.807,-166.877 348.846,-156.218"/>
<polygon fill="black" stroke="black" points="351.588,-154.015 343.19,-147.556 345.727,-157.843 351.588,-154.015"/>
</g>
<!-- 9 -->
<g id="node10" class="node"><title>9</title>
<path fill="#9cf2c0" stroke="black" d="M502,-153C502,-153 413,-153 413,-153 407,-153 401,-147 401,-141 401,-141 401,-101 401,-101 401,-95 407,-89 413,-89 413,-89 502,-89 502,-89 508,-89 514,-95 514,-101 514,-101 514,-141 514,-141 514,-147 508,-153 502,-153"/>
<text text-anchor="start" x="427" y="-138.8" font-family="Helvetica,sans-Serif" font-size="14.00">X</text>
<text text-anchor="start" x="437" y="-138.8" font-family="Helvetica,sans-Serif" baseline-shift="sub" font-size="14.00">2</text>
<text text-anchor="start" x="444" y="-138.8" font-family="Helvetica,sans-Serif" font-size="14.00"> ≤ 5.45</text>
<text text-anchor="start" x="420" y="-124.8" font-family="Helvetica,sans-Serif" font-size="14.00">gini = 0.444</text>
<text text-anchor="start" x="418" y="-110.8" font-family="Helvetica,sans-Serif" font-size="14.00">samples = 3</text>
<text text-anchor="start" x="409" y="-96.8" font-family="Helvetica,sans-Serif" font-size="14.00">value = [0, 2, 1]</text>
</g>
<!-- 7&#45;&gt;9 -->
<g id="edge9" class="edge"><title>7&#45;&gt;9</title>
<path fill="none" stroke="black" d="M411.699,-188.992C417.687,-180.234 424.284,-170.585 430.561,-161.404"/>
<polygon fill="black" stroke="black" points="433.454,-163.373 436.209,-153.142 427.676,-159.422 433.454,-163.373"/>
</g>
<!-- 10 -->
<g id="node11" class="node"><title>10</title>
<path fill="#39e581" stroke="black" d="M436,-53C436,-53 347,-53 347,-53 341,-53 335,-47 335,-41 335,-41 335,-12 335,-12 335,-6 341,-0 347,-0 347,-0 436,-0 436,-0 442,-0 448,-6 448,-12 448,-12 448,-41 448,-41 448,-47 442,-53 436,-53"/>
<text text-anchor="start" x="362.5" y="-37.8" font-family="Helvetica,sans-Serif" font-size="14.00">gini = 0.0</text>
<text text-anchor="start" x="352" y="-22.8" font-family="Helvetica,sans-Serif" font-size="14.00">samples = 2</text>
<text text-anchor="start" x="343" y="-7.8" font-family="Helvetica,sans-Serif" font-size="14.00">value = [0, 2, 0]</text>
</g>
<!-- 9&#45;&gt;10 -->
<g id="edge10" class="edge"><title>9&#45;&gt;10</title>
<path fill="none" stroke="black" d="M435.339,-88.9415C429.039,-80.1118 422.146,-70.451 415.73,-61.4586"/>
<polygon fill="black" stroke="black" points="418.417,-59.1983 409.759,-53.0908 412.719,-63.2641 418.417,-59.1983"/>
</g>
<!-- 11 -->
<g id="node12" class="node"><title>11</title>
<path fill="#8139e5" stroke="black" d="M567,-53C567,-53 478,-53 478,-53 472,-53 466,-47 466,-41 466,-41 466,-12 466,-12 466,-6 472,-0 478,-0 478,-0 567,-0 567,-0 573,-0 579,-6 579,-12 579,-12 579,-41 579,-41 579,-47 573,-53 567,-53"/>
<text text-anchor="start" x="493.5" y="-37.8" font-family="Helvetica,sans-Serif" font-size="14.00">gini = 0.0</text>
<text text-anchor="start" x="483" y="-22.8" font-family="Helvetica,sans-Serif" font-size="14.00">samples = 1</text>
<text text-anchor="start" x="474" y="-7.8" font-family="Helvetica,sans-Serif" font-size="14.00">value = [0, 0, 1]</text>
</g>
<!-- 9&#45;&gt;11 -->
<g id="edge11" class="edge"><title>9&#45;&gt;11</title>
<path fill="none" stroke="black" d="M479.325,-88.9415C485.53,-80.1118 492.318,-70.451 498.637,-61.4586"/>
<polygon fill="black" stroke="black" points="501.631,-63.2851 504.517,-53.0908 495.904,-59.2604 501.631,-63.2851"/>
</g>
<!-- 13 -->
<g id="node14" class="node"><title>13</title>
<path fill="#ffffff" stroke="black" d="M633,-253C633,-253 544,-253 544,-253 538,-253 532,-247 532,-241 532,-241 532,-201 532,-201 532,-195 538,-189 544,-189 544,-189 633,-189 633,-189 639,-189 645,-195 645,-201 645,-201 645,-241 645,-241 645,-247 639,-253 633,-253"/>
<text text-anchor="start" x="558" y="-238.8" font-family="Helvetica,sans-Serif" font-size="14.00">X</text>
<text text-anchor="start" x="568" y="-238.8" font-family="Helvetica,sans-Serif" baseline-shift="sub" font-size="14.00">0</text>
<text text-anchor="start" x="575" y="-238.8" font-family="Helvetica,sans-Serif" font-size="14.00"> ≤ 5.95</text>
<text text-anchor="start" x="559.5" y="-224.8" font-family="Helvetica,sans-Serif" font-size="14.00">gini = 0.5</text>
<text text-anchor="start" x="549" y="-210.8" font-family="Helvetica,sans-Serif" font-size="14.00">samples = 2</text>
<text text-anchor="start" x="540" y="-196.8" font-family="Helvetica,sans-Serif" font-size="14.00">value = [0, 1, 1]</text>
</g>
<!-- 12&#45;&gt;13 -->
<g id="edge13" class="edge"><title>12&#45;&gt;13</title>
<path fill="none" stroke="black" d="M588.5,-288.992C588.5,-280.859 588.5,-271.959 588.5,-263.378"/>
<polygon fill="black" stroke="black" points="592,-263.142 588.5,-253.142 585,-263.142 592,-263.142"/>
</g>
<!-- 16 -->
<g id="node17" class="node"><title>16</title>
<path fill="#8139e5" stroke="black" d="M772,-247.5C772,-247.5 675,-247.5 675,-247.5 669,-247.5 663,-241.5 663,-235.5 663,-235.5 663,-206.5 663,-206.5 663,-200.5 669,-194.5 675,-194.5 675,-194.5 772,-194.5 772,-194.5 778,-194.5 784,-200.5 784,-206.5 784,-206.5 784,-235.5 784,-235.5 784,-241.5 778,-247.5 772,-247.5"/>
<text text-anchor="start" x="694.5" y="-232.3" font-family="Helvetica,sans-Serif" font-size="14.00">gini = 0.0</text>
<text text-anchor="start" x="680" y="-217.3" font-family="Helvetica,sans-Serif" font-size="14.00">samples = 39</text>
<text text-anchor="start" x="671" y="-202.3" font-family="Helvetica,sans-Serif" font-size="14.00">value = [0, 0, 39]</text>
</g>
<!-- 12&#45;&gt;16 -->
<g id="edge16" class="edge"><title>12&#45;&gt;16</title>
<path fill="none" stroke="black" d="M631.215,-288.992C646.727,-277.731 664.267,-264.998 679.859,-253.68"/>
<polygon fill="black" stroke="black" points="682.258,-256.263 688.295,-247.556 678.146,-250.599 682.258,-256.263"/>
</g>
<!-- 14 -->
<g id="node15" class="node"><title>14</title>
<path fill="#39e581" stroke="black" d="M633,-147.5C633,-147.5 544,-147.5 544,-147.5 538,-147.5 532,-141.5 532,-135.5 532,-135.5 532,-106.5 532,-106.5 532,-100.5 538,-94.5 544,-94.5 544,-94.5 633,-94.5 633,-94.5 639,-94.5 645,-100.5 645,-106.5 645,-106.5 645,-135.5 645,-135.5 645,-141.5 639,-147.5 633,-147.5"/>
<text text-anchor="start" x="559.5" y="-132.3" font-family="Helvetica,sans-Serif" font-size="14.00">gini = 0.0</text>
<text text-anchor="start" x="549" y="-117.3" font-family="Helvetica,sans-Serif" font-size="14.00">samples = 1</text>
<text text-anchor="start" x="540" y="-102.3" font-family="Helvetica,sans-Serif" font-size="14.00">value = [0, 1, 0]</text>
</g>
<!-- 13&#45;&gt;14 -->
<g id="edge14" class="edge"><title>13&#45;&gt;14</title>
<path fill="none" stroke="black" d="M588.5,-188.992C588.5,-179.087 588.5,-168.042 588.5,-157.824"/>
<polygon fill="black" stroke="black" points="592,-157.556 588.5,-147.556 585,-157.556 592,-157.556"/>
</g>
<!-- 15 -->
<g id="node16" class="node"><title>15</title>
<path fill="#8139e5" stroke="black" d="M764,-147.5C764,-147.5 675,-147.5 675,-147.5 669,-147.5 663,-141.5 663,-135.5 663,-135.5 663,-106.5 663,-106.5 663,-100.5 669,-94.5 675,-94.5 675,-94.5 764,-94.5 764,-94.5 770,-94.5 776,-100.5 776,-106.5 776,-106.5 776,-135.5 776,-135.5 776,-141.5 770,-147.5 764,-147.5"/>
<text text-anchor="start" x="690.5" y="-132.3" font-family="Helvetica,sans-Serif" font-size="14.00">gini = 0.0</text>
<text text-anchor="start" x="680" y="-117.3" font-family="Helvetica,sans-Serif" font-size="14.00">samples = 1</text>
<text text-anchor="start" x="671" y="-102.3" font-family="Helvetica,sans-Serif" font-size="14.00">value = [0, 0, 1]</text>
</g>
<!-- 13&#45;&gt;15 -->
<g id="edge15" class="edge"><title>13&#45;&gt;15</title>
<path fill="none" stroke="black" d="M629.949,-188.992C645.002,-177.731 662.022,-164.998 677.152,-153.68"/>
<polygon fill="black" stroke="black" points="679.427,-156.349 685.338,-147.556 675.234,-150.744 679.427,-156.349"/>
</g>
</g>
</svg>
